PathFileType	4	(X/Y/Z)	 0.11m3min.trc
DataRate	CameraRate	NumFrames	NumMarkers	Units	OrigDataRate	OrigDataStartFrame	OrigNumFrames
200	200	9	39	m	200	501	1000
Frame#	Time	C7			LSH			RSH			MAN			RASI			LASI			HIPR			HIPL			RPSI			LPSI			COX			RTHI1			RTHI2			RTHI3			RTHI4			RLKN			RMKN			RSHA1			RSHA2			RSHA3			RSHA4			RHEEL			RMET5			RMET1			RTOE			LTHI1			LTHI2			LTHI3			LTHI4			LLKN			LMKN			LSHA1			LSHA2			LSHA3			LSHA4			LHEEL			LMET5			LMET1			LTOE			
		X1	Y1	Z1	X2	Y2	Z2	X3	Y3	Z3	X4	Y4	Z4	X5	Y5	Z5	X6	Y6	Z6	X7	Y7	Z7	X8	Y8	Z8	X9	Y9	Z9	X10	Y10	Z10	X11	Y11	Z11	X12	Y12	Z12	X13	Y13	Z13	X14	Y14	Z14	X15	Y15	Z15	X16	Y16	Z16	X17	Y17	Z17	X18	Y18	Z18	X19	Y19	Z19	X20	Y20	Z20	X21	Y21	Z21	X22	Y22	Z22	X23	Y23	Z23	X24	Y24	Z24	X25	Y25	Z25	X26	Y26	Z26	X27	Y27	Z27	X28	Y28	Z28	X29	Y29	Z29	X30	Y30	Z30	X31	Y31	Z31	X32	Y32	Z32	X33	Y33	Z33	X34	Y34	Z34	X35	Y35	Z35	X36	Y36	Z36	X37	Y37	Z37	X38	Y38	Z38	X39	Y39	Z39	
501	2.5050	-0.297631	1.600723	-0.558926	-0.269039	1.590501	-0.744475	-0.274159	1.593826	-0.383379	-0.144192	1.563383	-0.567971	-0.134142	1.099268	-0.439830	-0.132522	1.099840	-0.684630	-0.198643	1.162624	-0.395221	-0.205016	1.168006	-0.723859	-0.306389	1.154278	-0.525470	-0.305508	1.153902	-0.588364	-0.304657	1.155551	-0.558839	-0.215127	0.874177	-0.353905	-0.209614	0.812946	-0.352146	-0.138523	0.827818	-0.351944	-0.151142	0.886104	-0.354354	-0.230418	0.602563	-0.374163	-0.184718	0.580915	-0.499343	-0.294325	0.362849	-0.373918	-0.302924	0.323967	-0.386938	-0.245406	0.312014	-0.371069	-0.238998	0.351042	-0.361804	-0.336317	0.194282	-0.446289	-0.217933	0.091527	-0.348885	-0.154732	0.099439	-0.405644	-0.130449	0.085124	-0.392696	-0.260503	0.853969	-0.741323	-0.249797	0.795505	-0.736674	-0.182214	0.808185	-0.761029	-0.201449	0.867064	-0.763414	-0.243347	0.583323	-0.728953	-0.208874	0.563267	-0.610365	-0.317036	0.344541	-0.715193	-0.322693	0.306305	-0.706645	-0.265315	0.297837	-0.729399	-0.267181	0.341401	-0.736026	-0.353501	0.189223	-0.654653	-0.230003	0.084225	-0.741022	-0.172913	0.098329	-0.687378	-0.150187	0.084098	-0.698427	
502	2.5100	-0.297937	1.602239	-0.559152	-0.269022	1.592057	-0.744851	-0.274379	1.595116	-0.383290	-0.144502	1.564720	-0.568106	-0.134674	1.100564	-0.439963	-0.133047	1.101066	-0.684691	-0.199425	1.163735	-0.395345	-0.205651	1.168941	-0.723970	-0.307010	1.155575	-0.525693	-0.306110	1.155144	-0.588603	-0.305274	1.156811	-0.559059	-0.214694	0.875675	-0.353903	-0.209116	0.814462	-0.352152	-0.138025	0.829401	-0.352560	-0.150710	0.887636	-0.354873	-0.230429	0.604106	-0.374098	-0.184780	0.582480	-0.499311	-0.295206	0.364630	-0.374447	-0.304021	0.325797	-0.387627	-0.246488	0.313620	-0.371450	-0.239983	0.352634	-0.362135	-0.337544	0.195791	-0.446879	-0.218971	0.093542	-0.349104	-0.155757	0.101547	-0.405834	-0.131484	0.087328	-0.392780	-0.259979	0.855143	-0.742332	-0.249256	0.796678	-0.737532	-0.181416	0.809438	-0.761118	-0.200689	0.868294	-0.763728	-0.243590	0.584766	-0.729268	-0.209050	0.564792	-0.610716	-0.318406	0.346316	-0.714985	-0.324358	0.308257	-0.706290	-0.266880	0.299459	-0.729384	-0.268636	0.343014	-0.736009	-0.355473	0.190784	-0.654954	-0.230800	0.086197	-0.740204	-0.174300	0.100615	-0.686067	-0.151410	0.086553	-0.696940	
503	2.5150	-0.298229	1.603530	-0.559377	-0.268977	1.593339	-0.745257	-0.274571	1.596171	-0.383186	-0.144792	1.565793	-0.568233	-0.135227	1.101612	-0.440067	-0.133565	1.102081	-0.684758	-0.200271	1.164589	-0.395476	-0.206326	1.169670	-0.724062	-0.307663	1.156502	-0.525922	-0.306742	1.156033	-0.588851	-0.305916	1.157706	-0.559280	-0.214244	0.876933	-0.353941	-0.208600	0.815747	-0.352192	-0.137506	0.830767	-0.353189	-0.150259	0.888933	-0.355412	-0.230377	0.605428	-0.374022	-0.184933	0.583840	-0.499291	-0.296110	0.366183	-0.374882	-0.305207	0.327421	-0.388265	-0.247609	0.315002	-0.371808	-0.240987	0.353978	-0.362436	-0.338936	0.197152	-0.447349	-0.219966	0.095288	-0.349647	-0.156885	0.103468	-0.406457	-0.132580	0.089271	-0.393373	-0.259412	0.856101	-0.743356	-0.248653	0.797639	-0.738418	-0.180558	0.810520	-0.761215	-0.199888	0.869346	-0.764028	-0.243719	0.585989	-0.729613	-0.209153	0.566090	-0.611099	-0.319840	0.347905	-0.714782	-0.325845	0.309565	-0.705657	-0.268545	0.300839	-0.729329	-0.270151	0.344387	-0.735970	-0.357600	0.192165	-0.655254	-0.231698	0.087930	-0.739171	-0.175830	0.102700	-0.684492	-0.152763	0.088790	-0.695109	
504	2.5200	-0.298510	1.604596	-0.559602	-0.268908	1.594352	-0.745690	-0.274733	1.596985	-0.383079	-0.145066	1.566604	-0.568356	-0.135793	1.102414	-0.440149	-0.134073	1.102880	-0.684832	-0.201155	1.165210	-0.395608	-0.207024	1.170211	-0.724149	-0.308339	1.157067	-0.526146	-0.307395	1.156586	-0.589098	-0.306579	1.158246	-0.559496	-0.213796	0.877944	-0.354014	-0.208084	0.816790	-0.352261	-0.136989	0.831891	-0.353808	-0.149807	0.890000	-0.355957	-0.230233	0.606502	-0.373932	-0.185157	0.584979	-0.499279	-0.297019	0.367510	-0.375229	-0.306426	0.328837	-0.388807	-0.248754	0.316159	-0.372146	-0.242002	0.355085	-0.362705	-0.340470	0.198366	-0.447696	-0.220994	0.096718	-0.350431	-0.158101	0.105026	-0.407365	-0.133733	0.090955	-0.394443	-0.258838	0.856862	-0.744362	-0.248033	0.798402	-0.739303	-0.179700	0.811437	-0.761322	-0.199099	0.870224	-0.764309	-0.243725	0.586992	-0.729982	-0.209215	0.567160	-0.611493	-0.321275	0.349314	-0.714644	-0.327631	0.311114	-0.705460	-0.270238	0.301974	-0.729245	-0.271647	0.345513	-0.735926	-0.359836	0.193381	-0.655554	-0.232733	0.089369	-0.737970	-0.177533	0.104575	-0.682744	-0.154265	0.090804	-0.693073	
505	2.5250	-0.298778	1.605432	-0.559824	-0.268822	1.595094	-0.746151	-0.274873	1.597576	-0.382974	-0.145298	1.567145	-0.568473	-0.136359	1.102972	-0.440220	-0.134570	1.103468	-0.684917	-0.202062	1.165599	-0.395742	-0.207735	1.170570	-0.724234	-0.309030	1.157292	-0.526361	-0.308063	1.156814	-0.589334	-0.307274	1.158454	-0.559710	-0.213363	0.878704	-0.354117	-0.207577	0.817595	-0.352363	-0.136484	0.832747	-0.354397	-0.149368	0.890827	-0.356493	-0.229992	0.607337	-0.373827	-0.185424	0.585877	-0.499275	-0.297929	0.368617	-0.375488	-0.307635	0.330036	-0.389266	-0.249899	0.317094	-0.372459	-0.242998	0.355961	-0.362949	-0.342125	0.199436	-0.447903	-0.222073	0.097687	-0.351375	-0.159391	0.106460	-0.408646	-0.134961	0.092363	-0.395854	-0.258291	0.857435	-0.745313	-0.247435	0.798981	-0.740157	-0.178885	0.812187	-0.761443	-0.198359	0.870926	-0.764562	-0.243612	0.587777	-0.730365	-0.209277	0.567992	-0.611879	-0.322658	0.350518	-0.714619	-0.329353	0.312438	-0.705165	-0.271890	0.302878	-0.729125	-0.273054	0.346413	-0.735892	-0.362133	0.194457	-0.655859	-0.233932	0.090497	-0.736651	-0.179399	0.106145	-0.680881	-0.155946	0.092529	-0.690919	
506	2.5300	-0.299035	1.606037	-0.560044	-0.268716	1.595568	-0.746621	-0.274992	1.597936	-0.382874	-0.145510	1.567407	-0.568593	-0.136916	1.103292	-0.440290	-0.135055	1.103839	-0.685017	-0.202982	1.165760	-0.395881	-0.208461	1.170745	-0.724322	-0.309734	1.157196	-0.526564	-0.308750	1.156734	-0.589557	-0.307997	1.158347	-0.559920	-0.212953	0.879222	-0.354243	-0.207080	0.818154	-0.352487	-0.135998	0.833380	-0.354958	-0.148945	0.891414	-0.357011	-0.229644	0.607912	-0.373704	-0.185712	0.586513	-0.499276	-0.298817	0.369523	-0.375662	-0.308789	0.331045	-0.389593	-0.251011	0.317805	-0.372755	-0.243960	0.356611	-0.363168	-0.343872	0.200362	-0.447965	-0.223154	0.098401	-0.352541	-0.160783	0.107583	-0.410128	-0.136265	0.093453	-0.397572	-0.257803	0.857818	-0.746184	-0.246892	0.799373	-0.740957	-0.178156	0.812754	-0.761580	-0.197701	0.871449	-0.764792	-0.243396	0.588348	-0.730762	-0.209366	0.568583	-0.612243	-0.323945	0.351521	-0.714729	-0.331151	0.313443	-0.705361	-0.273438	0.303554	-0.728985	-0.274324	0.347088	-0.735883	-0.364474	0.195406	-0.656183	-0.235320	0.091313	-0.735276	-0.181439	0.107435	-0.679005	-0.157818	0.093926	-0.688717	
507	2.5350	-0.299282	1.606413	-0.560262	-0.268595	1.595778	-0.747098	-0.275097	1.598067	-0.382780	-0.145720	1.567406	-0.568718	-0.137458	1.103384	-0.440362	-0.135526	1.103985	-0.685128	-0.203861	1.165672	-0.396023	-0.209196	1.170727	-0.724422	-0.310444	1.156792	-0.526755	-0.309454	1.156360	-0.589765	-0.308727	1.157940	-0.560117	-0.212555	0.879492	-0.354388	-0.206594	0.818457	-0.352624	-0.135535	0.833757	-0.355466	-0.148544	0.891762	-0.357503	-0.229190	0.608225	-0.373563	-0.185995	0.586882	-0.499285	-0.299630	0.370232	-0.375758	-0.309852	0.331834	-0.389779	-0.252073	0.318286	-0.373040	-0.244856	0.357016	-0.363373	-0.345681	0.201145	-0.447896	-0.224236	0.098856	-0.353881	-0.162281	0.108462	-0.411890	-0.137653	0.094224	-0.399551	-0.257392	0.858008	-0.746953	-0.246429	0.799570	-0.741681	-0.177537	0.813119	-0.761722	-0.197149	0.871774	-0.764996	-0.243089	0.588704	-0.731166	-0.209517	0.568927	-0.612574	-0.325109	0.352309	-0.714997	-0.332598	0.314248	-0.705326	-0.274841	0.304004	-0.728853	-0.275430	0.347526	-0.735902	-0.366837	0.196231	-0.656538	-0.236897	0.091819	-0.733899	-0.183644	0.108366	-0.677145	-0.159896	0.094941	-0.686521	
508	2.5400	-0.299516	1.606555	-0.560477	-0.268465	1.595723	-0.747578	-0.275192	1.597964	-0.382692	-0.145917	1.567141	-0.568849	-0.137979	1.103252	-0.440440	-0.135983	1.103912	-0.685254	-0.204720	1.165373	-0.396170	-0.209935	1.170512	-0.724540	-0.311158	1.156095	-0.526932	-0.310169	1.155705	-0.589954	-0.309448	1.157244	-0.560294	-0.212174	0.879515	-0.354548	-0.206117	0.818514	-0.352769	-0.135091	0.833869	-0.355921	-0.148168	0.891870	-0.357958	-0.228647	0.608282	-0.373421	-0.186240	0.586971	-0.499319	-0.300381	0.370744	-0.375761	-0.310822	0.332404	-0.389822	-0.253082	0.318542	-0.373309	-0.245675	0.357194	-0.363570	-0.347541	0.201779	-0.447695	-0.225374	0.098903	-0.355290	-0.163903	0.108974	-0.413765	-0.139138	0.094680	-0.401744	-0.257073	0.857995	-0.747610	-0.246059	0.799562	-0.742317	-0.177048	0.813263	-0.761875	-0.196719	0.871879	-0.765182	-0.242707	0.588833	-0.731568	-0.209745	0.569033	-0.612863	-0.326146	0.352886	-0.715412	-0.333948	0.315059	-0.705860	-0.276087	0.304230	-0.728736	-0.276364	0.347746	-0.735953	-0.369227	0.196945	-0.656951	-0.238643	0.092042	-0.732566	-0.186023	0.108940	-0.675327	-0.162161	0.095598	-0.684405	
509	2.5450	-0.299736	1.606459	-0.560690	-0.268333	1.595404	-0.748051	-0.275282	1.597632	-0.382612	-0.146098	1.566613	-0.568982	-0.138477	1.102900	-0.440531	-0.136429	1.103617	-0.685397	-0.205543	1.164830	-0.396318	-0.210679	1.170083	-0.724676	-0.311873	1.155134	-0.527098	-0.310897	1.154781	-0.590126	-0.310172	1.156279	-0.560459	-0.211802	0.879297	-0.354719	-0.205651	0.818326	-0.352916	-0.134656	0.833738	-0.356332	-0.147813	0.891736	-0.358381	-0.228039	0.608105	-0.373300	-0.186437	0.586786	-0.499379	-0.301053	0.371042	-0.375680	-0.311707	0.332752	-0.389743	-0.254024	0.318568	-0.373559	-0.246392	0.357148	-0.363779	-0.349433	0.202262	-0.447379	-0.226537	0.098665	-0.356774	-0.165649	0.109235	-0.415788	-0.140734	0.094790	-0.404068	-0.256854	0.857769	-0.748142	-0.245787	0.799343	-0.742853	-0.176692	0.813164	-0.762037	-0.196414	0.871750	-0.765352	-0.242258	0.588726	-0.731962	-0.210058	0.568899	-0.613107	-0.327064	0.353224	-0.715948	-0.335062	0.315660	-0.706456	-0.277184	0.304234	-0.728640	-0.277146	0.347753	-0.736029	-0.371634	0.197534	-0.657432	-0.240542	0.091990	-0.731337	-0.188548	0.109127	-0.673572	-0.164620	0.095872	-0.682364	
